{
	"patcher" : 	{
		"fileversion" : 1,
		"appversion" : 		{
			"major" : 8,
			"minor" : 5,
			"revision" : 5,
			"architecture" : "x64",
			"modernui" : 1
		}
,
		"classnamespace" : "box",
		"rect" : [ 34.0, 100.0, 1006.0, 848.0 ],
		"bglocked" : 0,
		"openinpresentation" : 0,
		"default_fontsize" : 12.0,
		"default_fontface" : 0,
		"default_fontname" : "Arial",
		"gridonopen" : 1,
		"gridsize" : [ 15.0, 15.0 ],
		"gridsnaponopen" : 1,
		"objectsnaponopen" : 1,
		"statusbarvisible" : 2,
		"toolbarvisible" : 1,
		"lefttoolbarpinned" : 0,
		"toptoolbarpinned" : 0,
		"righttoolbarpinned" : 0,
		"bottomtoolbarpinned" : 0,
		"toolbars_unpinned_last_save" : 0,
		"tallnewobj" : 0,
		"boxanimatetime" : 200,
		"enablehscroll" : 1,
		"enablevscroll" : 1,
		"devicewidth" : 0.0,
		"description" : "",
		"digest" : "",
		"tags" : "",
		"style" : "",
		"subpatcher_template" : "",
		"assistshowspatchername" : 0,
		"boxes" : [ 			{
				"box" : 				{
					"id" : "obj-18",
					"maxclass" : "newobj",
					"numinlets" : 2,
					"numoutlets" : 1,
					"outlettype" : [ "signal" ],
					"patching_rect" : [ 60.0, 514.0, 40.0, 22.0 ],
					"text" : "*~ 2.4"
				}

			}
, 			{
				"box" : 				{
					"addpoints_with_curve" : [ 0.0, 0.0, 0, 0.0, 0.5, 0.5, 0, -0.6, 1.0, 1.0, 0, 0.6 ],
					"domain" : 1.0,
					"gridstep_x" : 1.0,
					"id" : "obj-42",
					"maxclass" : "function",
					"mode" : 1,
					"numinlets" : 1,
					"numoutlets" : 4,
					"outlettype" : [ "float", "", "", "bang" ],
					"parameter_enable" : 0,
					"patching_rect" : [ 1455.0, 120.0, 195.0, 105.0 ]
				}

			}
, 			{
				"box" : 				{
					"addpoints_with_curve" : [ 0.0, 0.0, 0, 0.0, 0.5, 0.583333333333333, 0, 0.6, 0.75, 0.75, 0, 0.3, 0.887978142076503, 0.95, 0, 0.0, 1.0, 1.0, 0, -0.5 ],
					"domain" : 1.0,
					"gridstep_x" : 1.0,
					"id" : "obj-41",
					"maxclass" : "function",
					"mode" : 1,
					"numinlets" : 1,
					"numoutlets" : 4,
					"outlettype" : [ "float", "", "", "bang" ],
					"parameter_enable" : 0,
					"patching_rect" : [ 420.0, 120.0, 195.0, 105.0 ]
				}

			}
, 			{
				"box" : 				{
					"id" : "obj-28",
					"maxclass" : "newobj",
					"numinlets" : 2,
					"numoutlets" : 1,
					"outlettype" : [ "signal" ],
					"patching_rect" : [ 60.0, 465.0, 71.0, 22.0 ],
					"text" : "*~ 0."
				}

			}
, 			{
				"box" : 				{
					"id" : "obj-24",
					"maxclass" : "newobj",
					"numinlets" : 3,
					"numoutlets" : 1,
					"outlettype" : [ "signal" ],
					"patching_rect" : [ 60.0, 405.0, 227.0, 22.0 ],
					"text" : "poly~ poly.lowpass up 2"
				}

			}
, 			{
				"box" : 				{
					"addpoints_with_curve" : [ 0.0, 0.0, 0, 0.0, 1.0, 1.0, 0, 0.7 ],
					"domain" : 1.0,
					"gridstep_x" : 1.0,
					"id" : "obj-26",
					"maxclass" : "function",
					"mode" : 1,
					"numinlets" : 1,
					"numoutlets" : 4,
					"outlettype" : [ "float", "", "", "bang" ],
					"parameter_enable" : 0,
					"patching_rect" : [ 900.0, 120.0, 195.0, 105.0 ]
				}

			}
, 			{
				"box" : 				{
					"addpoints_with_curve" : [ 0.0, 0.0, 0, 0.0, 1.0, 1.0, 0, -0.4 ],
					"domain" : 1.0,
					"gridstep_x" : 1.0,
					"id" : "obj-19",
					"maxclass" : "function",
					"mode" : 1,
					"numinlets" : 1,
					"numoutlets" : 4,
					"outlettype" : [ "float", "", "", "bang" ],
					"parameter_enable" : 0,
					"patching_rect" : [ 660.0, 120.0, 195.0, 105.0 ]
				}

			}
, 			{
				"box" : 				{
					"addpoints_with_curve" : [ 0.0, 0.0, 0, 0.0, 1.0, 1.0, 0, -0.5 ],
					"domain" : 1.0,
					"gridstep_x" : 1.0,
					"id" : "obj-17",
					"maxclass" : "function",
					"mode" : 1,
					"numinlets" : 1,
					"numoutlets" : 4,
					"outlettype" : [ "float", "", "", "bang" ],
					"parameter_enable" : 0,
					"patching_rect" : [ 1215.0, 120.0, 195.0, 105.0 ]
				}

			}
, 			{
				"box" : 				{
					"comment" : "",
					"id" : "obj-16",
					"index" : 1,
					"maxclass" : "inlet",
					"numinlets" : 0,
					"numoutlets" : 1,
					"outlettype" : [ "" ],
					"patching_rect" : [ 60.0, 45.0, 30.0, 30.0 ]
				}

			}
, 			{
				"box" : 				{
					"id" : "obj-9",
					"maxclass" : "newobj",
					"numinlets" : 0,
					"numoutlets" : 1,
					"outlettype" : [ "" ],
					"patching_rect" : [ 1680.0, 45.0, 46.0, 22.0 ],
					"text" : "r ---ctl7"
				}

			}
, 			{
				"box" : 				{
					"id" : "obj-10",
					"maxclass" : "newobj",
					"numinlets" : 0,
					"numoutlets" : 1,
					"outlettype" : [ "" ],
					"patching_rect" : [ 900.0, 45.0, 46.0, 22.0 ],
					"text" : "r ---ctl3"
				}

			}
, 			{
				"box" : 				{
					"id" : "obj-12",
					"maxclass" : "newobj",
					"numinlets" : 0,
					"numoutlets" : 1,
					"outlettype" : [ "" ],
					"patching_rect" : [ 1455.0, 45.0, 46.0, 22.0 ],
					"text" : "r ---ctl6"
				}

			}
, 			{
				"box" : 				{
					"id" : "obj-14",
					"maxclass" : "newobj",
					"numinlets" : 0,
					"numoutlets" : 1,
					"outlettype" : [ "" ],
					"patching_rect" : [ 420.0, 45.0, 46.0, 22.0 ],
					"text" : "r ---ctl1"
				}

			}
, 			{
				"box" : 				{
					"id" : "obj-6",
					"maxclass" : "newobj",
					"numinlets" : 0,
					"numoutlets" : 1,
					"outlettype" : [ "" ],
					"patching_rect" : [ 660.0, 45.0, 46.0, 22.0 ],
					"text" : "r ---ctl2"
				}

			}
, 			{
				"box" : 				{
					"id" : "obj-8",
					"maxclass" : "newobj",
					"numinlets" : 0,
					"numoutlets" : 1,
					"outlettype" : [ "" ],
					"patching_rect" : [ 300.0, 45.0, 46.0, 22.0 ],
					"text" : "r ---ctl0"
				}

			}
, 			{
				"box" : 				{
					"id" : "obj-4",
					"maxclass" : "newobj",
					"numinlets" : 0,
					"numoutlets" : 1,
					"outlettype" : [ "" ],
					"patching_rect" : [ 1215.0, 45.0, 46.0, 22.0 ],
					"text" : "r ---ctl5"
				}

			}
, 			{
				"box" : 				{
					"id" : "obj-3",
					"maxclass" : "newobj",
					"numinlets" : 0,
					"numoutlets" : 1,
					"outlettype" : [ "" ],
					"patching_rect" : [ 1125.0, 45.0, 46.0, 22.0 ],
					"text" : "r ---ctl4"
				}

			}
, 			{
				"box" : 				{
					"comment" : "",
					"id" : "obj-2",
					"index" : 1,
					"maxclass" : "outlet",
					"numinlets" : 1,
					"numoutlets" : 0,
					"patching_rect" : [ 60.0, 570.0, 30.0, 30.0 ]
				}

			}
, 			{
				"box" : 				{
					"id" : "obj-43",
					"maxclass" : "message",
					"numinlets" : 2,
					"numoutlets" : 1,
					"outlettype" : [ "" ],
					"patching_rect" : [ 1455.0, 270.0, 48.0, 22.0 ],
					"text" : "fdec $1"
				}

			}
, 			{
				"box" : 				{
					"id" : "obj-39",
					"maxclass" : "toggle",
					"numinlets" : 1,
					"numoutlets" : 1,
					"outlettype" : [ "int" ],
					"parameter_enable" : 0,
					"patching_rect" : [ 216.0, 206.0, 24.0, 24.0 ]
				}

			}
, 			{
				"box" : 				{
					"id" : "obj-37",
					"maxclass" : "newobj",
					"numinlets" : 1,
					"numoutlets" : 1,
					"outlettype" : [ "signal" ],
					"patching_rect" : [ 216.0, 270.0, 31.0, 22.0 ],
					"text" : "sig~"
				}

			}
, 			{
				"box" : 				{
					"id" : "obj-36",
					"maxclass" : "newobj",
					"numinlets" : 2,
					"numoutlets" : 2,
					"outlettype" : [ "bang", "" ],
					"patching_rect" : [ 123.0, 206.0, 34.0, 22.0 ],
					"text" : "sel 0"
				}

			}
, 			{
				"box" : 				{
					"id" : "obj-32",
					"maxclass" : "newobj",
					"numinlets" : 1,
					"numoutlets" : 2,
					"outlettype" : [ "int", "int" ],
					"patching_rect" : [ 60.0, 104.0, 175.0, 22.0 ],
					"text" : "unpack"
				}

			}
, 			{
				"box" : 				{
					"id" : "obj-29",
					"maxclass" : "newobj",
					"numinlets" : 2,
					"numoutlets" : 2,
					"outlettype" : [ "int", "int" ],
					"patching_rect" : [ 60.0, 142.0, 175.0, 22.0 ],
					"text" : "ddg.mono @legatomode 1"
				}

			}
, 			{
				"box" : 				{
					"id" : "obj-25",
					"maxclass" : "message",
					"numinlets" : 2,
					"numoutlets" : 1,
					"outlettype" : [ "" ],
					"patching_rect" : [ 660.0, 270.0, 45.0, 22.0 ],
					"text" : "sub $1"
				}

			}
, 			{
				"box" : 				{
					"id" : "obj-15",
					"maxclass" : "message",
					"numinlets" : 2,
					"numoutlets" : 1,
					"outlettype" : [ "" ],
					"patching_rect" : [ 300.0, 270.0, 58.0, 22.0 ],
					"text" : "shape $1"
				}

			}
, 			{
				"box" : 				{
					"id" : "obj-13",
					"maxclass" : "message",
					"numinlets" : 2,
					"numoutlets" : 1,
					"outlettype" : [ "" ],
					"patching_rect" : [ 420.0, 270.0, 62.0, 22.0 ],
					"text" : "detune $1"
				}

			}
, 			{
				"box" : 				{
					"id" : "obj-11",
					"maxclass" : "message",
					"numinlets" : 2,
					"numoutlets" : 1,
					"outlettype" : [ "" ],
					"patching_rect" : [ 1680.0, 270.0, 61.0, 22.0 ],
					"text" : "fil_dep $1"
				}

			}
, 			{
				"box" : 				{
					"id" : "obj-7",
					"maxclass" : "message",
					"numinlets" : 2,
					"numoutlets" : 1,
					"outlettype" : [ "" ],
					"patching_rect" : [ 900.0, 270.0, 45.0, 22.0 ],
					"text" : "dec $1"
				}

			}
, 			{
				"box" : 				{
					"id" : "obj-23",
					"maxclass" : "message",
					"numinlets" : 2,
					"numoutlets" : 1,
					"outlettype" : [ "" ],
					"patching_rect" : [ 1215.0, 274.0, 42.0, 22.0 ],
					"text" : "res $1"
				}

			}
, 			{
				"box" : 				{
					"id" : "obj-22",
					"maxclass" : "newobj",
					"numinlets" : 1,
					"numoutlets" : 1,
					"outlettype" : [ "signal" ],
					"patching_rect" : [ 138.0, 270.0, 39.0, 22.0 ],
					"text" : "click~"
				}

			}
, 			{
				"box" : 				{
					"id" : "obj-21",
					"maxclass" : "newobj",
					"numinlets" : 1,
					"numoutlets" : 1,
					"outlettype" : [ "bang" ],
					"patching_rect" : [ 138.0, 238.0, 22.0, 22.0 ],
					"text" : "t b"
				}

			}
, 			{
				"box" : 				{
					"id" : "obj-5",
					"maxclass" : "message",
					"numinlets" : 2,
					"numoutlets" : 1,
					"outlettype" : [ "" ],
					"patching_rect" : [ 1125.0, 274.0, 41.0, 22.0 ],
					"text" : "cut $1"
				}

			}
, 			{
				"box" : 				{
					"id" : "obj-1",
					"maxclass" : "newobj",
					"numinlets" : 3,
					"numoutlets" : 4,
					"outlettype" : [ "signal", "signal", "signal", "signal" ],
					"patcher" : 					{
						"fileversion" : 1,
						"appversion" : 						{
							"major" : 8,
							"minor" : 5,
							"revision" : 5,
							"architecture" : "x64",
							"modernui" : 1
						}
,
						"classnamespace" : "dsp.gen",
						"rect" : [ 543.0, 100.0, 861.0, 848.0 ],
						"bglocked" : 0,
						"openinpresentation" : 0,
						"default_fontsize" : 12.0,
						"default_fontface" : 0,
						"default_fontname" : "Arial",
						"gridonopen" : 1,
						"gridsize" : [ 15.0, 15.0 ],
						"gridsnaponopen" : 1,
						"objectsnaponopen" : 1,
						"statusbarvisible" : 2,
						"toolbarvisible" : 1,
						"lefttoolbarpinned" : 0,
						"toptoolbarpinned" : 0,
						"righttoolbarpinned" : 0,
						"bottomtoolbarpinned" : 0,
						"toolbars_unpinned_last_save" : 0,
						"tallnewobj" : 0,
						"boxanimatetime" : 200,
						"enablehscroll" : 1,
						"enablevscroll" : 1,
						"devicewidth" : 0.0,
						"description" : "",
						"digest" : "",
						"tags" : "",
						"style" : "",
						"subpatcher_template" : "",
						"assistshowspatchername" : 0,
						"boxes" : [ 							{
								"box" : 								{
									"id" : "obj-4",
									"maxclass" : "newobj",
									"numinlets" : 1,
									"numoutlets" : 0,
									"patching_rect" : [ 656.0, 810.0, 35.0, 22.0 ],
									"text" : "out 4"
								}

							}
, 							{
								"box" : 								{
									"id" : "obj-3",
									"maxclass" : "newobj",
									"numinlets" : 1,
									"numoutlets" : 0,
									"patching_rect" : [ 442.333333333333314, 810.0, 35.0, 22.0 ],
									"text" : "out 3"
								}

							}
, 							{
								"box" : 								{
									"id" : "obj-2",
									"maxclass" : "newobj",
									"numinlets" : 1,
									"numoutlets" : 0,
									"patching_rect" : [ 228.666666666666657, 810.0, 35.0, 22.0 ],
									"text" : "out 2"
								}

							}
, 							{
								"box" : 								{
									"id" : "obj-1",
									"maxclass" : "newobj",
									"numinlets" : 0,
									"numoutlets" : 1,
									"outlettype" : [ "" ],
									"patching_rect" : [ 656.0, 15.0, 28.0, 22.0 ],
									"text" : "in 3"
								}

							}
, 							{
								"box" : 								{
									"id" : "obj-9",
									"maxclass" : "newobj",
									"numinlets" : 0,
									"numoutlets" : 1,
									"outlettype" : [ "" ],
									"patching_rect" : [ 335.5, 15.0, 28.0, 22.0 ],
									"text" : "in 2"
								}

							}
, 							{
								"box" : 								{
									"id" : "obj-7",
									"maxclass" : "newobj",
									"numinlets" : 0,
									"numoutlets" : 1,
									"outlettype" : [ "" ],
									"patching_rect" : [ 15.0, 15.0, 28.0, 22.0 ],
									"text" : "in 1"
								}

							}
, 							{
								"box" : 								{
									"id" : "obj-6",
									"maxclass" : "newobj",
									"numinlets" : 1,
									"numoutlets" : 0,
									"patching_rect" : [ 15.0, 810.0, 35.0, 22.0 ],
									"text" : "out 1"
								}

							}
, 							{
								"box" : 								{
									"code" : "smooth(x, time) { \n    History prev;\n    prev = prev + time * (x - prev);        \n\n    return prev;\n}\r\n\r\nad(trig, gate, attack, release) {\n\tHistory env(0), stage(0),\n\t\t\tatk_rate(0), atk_coeff(0), atk_offset(0),\n\t\t\trel_rate(0), rel_coeff(0), rel_offset(0);\n\t\t\r\n\tif (trig) {\r\n\t\t// rate in seconds\n\t\tatk_rate = samplerate * attack;\n\t\trel_rate = samplerate * release;\n\t\t\n\t\t// slope 0 = linear, slope -n = log/exp\n\t\trel_slope = exp(-8);\n\t\t\n\t\t// calculate coefficients\n\t\tatk_offset = 1 / atk_rate;\n\t\t\n\t\trel_coeff = exp(-log((1 + rel_slope) / rel_slope) / rel_rate);\n\t\trel_offset = -rel_slope * (1 - rel_coeff);\n\t\t\n\t\t// reset & trigger envelope\n\t\tstage = 1;\n\t}\t\n\n\t// stage 0 = idle, 1 = attack, 2 = decay\n\tif (stage == 0) {\n\t\tenv = 0;\n\t} else if (stage == 1) {\n\t\tenv = atk_offset + env;\r\n\t\t\r\n\t\tif (!gate) {\r\n\t\t\tstage = 2;\r\n\t\t}\n\t\t\n\t\tif (env >= 1 || attack <= 0) {\n\t\t\tenv = 1;\n\t\t\tstage = 2;\n\t\t}\r\n\t} else {\n\t\tenv = rel_offset + env * rel_coeff;\n\t\t\n\t\tif (env <= 0 || release <= 0) {\n\t\t\tenv = 0;\n\t\t\tstage = 0;\n\t\t}\r\n\t}\n\treturn env;\n}\r\n\r\nar(trig, gate, attack, release) {\n\tHistory env(0), stage(0), trigged(0), gating(0),\n\t\t\tatk_rate(0), atk_coeff(0), atk_offset(0),\n\t\t\trel_rate(0), rel_coeff(0), rel_offset(0);\n\t\t\r\n\tif (trig) {\r\n\t\tif (gate && trigged) {\r\n\t\t\t// do nothing\r\n\t\t} else {\r\n\t\t\ttrigged = 1;\r\n\t\t\t\r\n\t\t\t// rate in seconds\n\t\t\tatk_rate = samplerate * attack;\n\t\t\trel_rate = samplerate * release;\n\t\t\n\t\t\t// slope 0 = linear, slope -n = log/exp\n\t\t\trel_slope = exp(-8);\n\t\t\n\t\t\t// calculate coefficients\r\n\t\t\tatk_offset = 1 / atk_rate;\n\t\t\n\t\t\trel_coeff = exp(-log((1 + rel_slope) / rel_slope) / rel_rate);\n\t\t\trel_offset = -rel_slope * (1 - rel_coeff);\n\t\t\n\t\t\t// reset & trigger envelope\n\t\t\tstage = 1;\r\n\t\t}\n\t}\t\n\n\t// stage 0 = idle, 1 = attack, 2 = decay\n\tif (stage == 0) {\n\t\tenv = 0;\n\t} else if (gate && trigged) {\r\n \t\tif (stage == 1) {\n\t\t\tenv = atk_offset + env;\n\t\t\n\t\t\tif (env >= 1 || attack <= 0) {\n\t\t\t\tenv = 1;\n\t\t\t\tstage = 2;\n\t\t\t}\r\n\t\t} else {\n\t\t\tenv = env;\n\t\t}\r\n\t} else {\r\n\t\ttrigged = 0;\r\n\t\t\n\t\tenv = rel_offset + env * rel_coeff;\n\t\t\n\t\tif (env <= 0 || release <= 0) {\n\t\t\tenv = 0;\n\t\t\tstage = 0;\n\t\t}\r\n\t} \n\treturn env, trigged;\n}\r\n\r\ntan_a(x) {\n\tx2 = x * x;\n\treturn x * (0.999999492001 + x2 * -0.096524608111) / (1 + x2 * (-0.429867256894 + x2 * 0.009981877999));\n}\r\n\r\nasym(x) {\r\n\treturn (exp(x * 1.2) - exp(-x * 1.025)) / (exp(x * 1.2) + exp(-x));\r\n}\r\n\r\nph(freq) {\r\n\tHistory phase(0);\r\n\t\r\n\tinc = freq / samplerate;\r\n\t\r\n\tphase += inc;\r\n\tphase -= phase >= 1;\r\n\t\r\n\treturn phase;\r\n}\r\n\r\nop(freq, mult, ph, pm, fb) {\r\n\tHistory fbk(0), osc(0);\r\n\t\r\n\tratio = freq * mult;\r\n\t\r\n\tnorm_freq = (ratio) / samplerate;\r\n\tfb_factor = 13 * pow(0.5 - norm_freq, 4);\r\n\t\r\n\tphase = ph(ratio);\r\n\tosc = cycle((phase - 0.25 + ph) + fbk + pm, index = \"phase\");\r\n\t\r\n\tif (fb > 0) {\r\n\t\tfbk = mix(osc * (fb * fb_factor), fbk, 0.5);\r\n\t}\r\n\tif (fb < 0) {\r\n\t\tfbk = mix((osc * osc) * (fb * fb_factor), fbk, 0.5);\r\n\t}\r\n\t\r\n\treturn osc;\r\n}\r\n\r\npulse(freq, width, factor) {\r\n\tHistory pw, pwm, osc;\r\n\t\r\n\twidth = width + 0.02;\r\n\t\r\n\tpw = op(freq, -1, 0.40, 0, 0) * width * factor;\r\n\tpwm = op(freq, 2, 0, pw * 0.8, 0.375) * 0.145 * factor;\r\n\tosc = op(freq, 1, 0, pwm + pw * 0.41, -0.24);\r\n\t\r\n\treturn osc;\r\n}\r\n\r\nsaw(freq, width, factor) {\r\n\tHistory tri, pwm, osc;\r\n\t\r\n\tsw0 = op(freq, 1, 0.071, 0, 0.4) * 0.2 * factor;\r\n\tosc = op(freq, 1, 0.071, sw0, 0.3);\r\n\t\r\n\treturn osc;\r\n}\r\n\r\nParam \tcut, res, fil_dep,\r\n\t\tshape, sub, detune, slide,\r\n\t\tatk, dec, fdec;\r\n\r\nHistory slide_time;\r\n\r\n// inputs\r\n\r\nnote = in1;\r\ntrig = in2;\r\ngate = in3;\r\n\r\n\r\n// parameters\r\n\r\ncut_ = smooth(cut * 127, 0.005);\r\nres_ = smooth(res * 8.3 + 1, 0.005);\r\nshape_ = smooth(shape, 0.005);\r\nsub_ = smooth(sub, 0.005);\r\ndetune_ = smooth(detune * 12, 0.005);\r\n\r\nfdec_uni = fdec * 2 - 1;\r\nfatk = abs(clip(fdec_uni, -1, 0));\r\nfatk = smooth(fatk + 0.001, 0.005);\r\n\r\ndec_ = smooth(dec * 16 + 0.01, 0.005);\r\nfdec_ = smooth(abs(fdec_uni) * 16 + 0.01, 0.005);\r\n\r\nshape_mix = clip(shape_, 0, 0.5) * 2;\r\npulse_width = (clip(shape_, 0.5, 1) - 0.5) * 2;\r\n\r\ndetune_mix = smooth(clip(detune_, 0, 0.0001) * 10000, 0.0001);\r\n\r\nsub0_mix = clip(sub_, 0, 0.5) * 2;\r\nsub1_mix = (clip(sub_, 0.5, 1) - 0.5) * 2;\r\n\r\n// envelopes\r\n\r\nclip_env = (0.5 - clip(fil_dep, 0, 0.5)) * 1;\r\n\r\namp_env, trigged = ar(trig, gate, 0.001, dec_);\r\nfil_env = ad(trig, gate, fatk, fdec_);\r\n\r\n// frequency calculations\r\n\r\nlast_note = latch(note, delta(trigged) > 0);\r\n\r\nif (trigged) {\r\n\tif (note != last_note) {\r\n\t\tslide_time = 1024;\r\n\t}\r\n} else {\r\n\tslide_time = 0;\r\n}\r\n\r\nnote_ = slide(note, slide_time, slide_time);\r\n\r\nfreq = mtof(note_);\r\nfreq_d = mtof(note_ + detune_);\r\nfreq_s0 = mtof(note_ - 12);\r\nfreq_s1 = mtof(note_ - 24);\r\n\r\nfil_dep_ = smooth(fil_dep * 127, 0.005);\r\n\r\ncutoff = mtof(smooth(cut_, 0.005) + (note_ - 24) + fil_env * fil_dep_);\r\ncutoff = clip(cutoff, 1, samplerate / 2 - 500);\r\n\r\nnorm_freq = freq / samplerate;\r\nnorm_freq_d = freq_d / samplerate;\r\nnorm_freq_s = freq_s0 / samplerate;\r\n\r\npm_factor = 14 * pow(0.5 - norm_freq, 4);\r\npm_factor_d = 14 * pow(0.5 - norm_freq_d, 4);\r\npm_factor_s = 14 * pow(0.5 - norm_freq_s, 4);\r\n\r\n// oscillators\r\n\r\nosc_p0 = pulse(freq, pulse_width, pm_factor);\r\nosc_p1 = pulse(freq_d, pulse_width, pm_factor_d);\r\n\r\npul_mix = osc_p0 + osc_p1 * detune_mix;\r\n\r\nosc_s0 = saw(freq, 0, pm_factor);\r\nosc_s1 = saw(freq_d, 0, pm_factor_d);\r\n\r\nsaw_mix = osc_s0 + osc_s1 * detune_mix;\r\n\r\nosc_sb0 = pulse(freq_s0, 0, pm_factor_s);\r\nosc_sb1 = pulse(freq_s1, 0, pm_factor_s);\r\n\r\nsub_mix = mix(osc_sb0 * sub0_mix, osc_sb1, sub1_mix);\r\nosc_mix = mix(saw_mix, pul_mix, shape_mix) + sub_mix;\r\n\r\n\r\nout1 = osc_mix;\r\nout2 = amp_env;\r\nout3 = cutoff;\r\nout4 = res_;",
									"fontface" : 0,
									"fontname" : "<Monospaced>",
									"fontsize" : 12.0,
									"id" : "obj-5",
									"maxclass" : "codebox",
									"numinlets" : 3,
									"numoutlets" : 4,
									"outlettype" : [ "", "", "", "" ],
									"patching_rect" : [ 15.0, 45.0, 660.0, 750.0 ]
								}

							}
 ],
						"lines" : [ 							{
								"patchline" : 								{
									"destination" : [ "obj-5", 2 ],
									"source" : [ "obj-1", 0 ]
								}

							}
, 							{
								"patchline" : 								{
									"destination" : [ "obj-2", 0 ],
									"source" : [ "obj-5", 1 ]
								}

							}
, 							{
								"patchline" : 								{
									"destination" : [ "obj-3", 0 ],
									"source" : [ "obj-5", 2 ]
								}

							}
, 							{
								"patchline" : 								{
									"destination" : [ "obj-4", 0 ],
									"source" : [ "obj-5", 3 ]
								}

							}
, 							{
								"patchline" : 								{
									"destination" : [ "obj-6", 0 ],
									"source" : [ "obj-5", 0 ]
								}

							}
, 							{
								"patchline" : 								{
									"destination" : [ "obj-5", 0 ],
									"source" : [ "obj-7", 0 ]
								}

							}
, 							{
								"patchline" : 								{
									"destination" : [ "obj-5", 1 ],
									"source" : [ "obj-9", 0 ]
								}

							}
 ],
						"saved_attribute_attributes" : 						{
							"default_plcolor" : 							{
								"expression" : ""
							}

						}

					}
,
					"patching_rect" : [ 60.0, 343.0, 175.0, 22.0 ],
					"saved_object_attributes" : 					{
						"exportfolder" : "Macintosh HD:/Users/ess/Desktop/fuck/"
					}
,
					"text" : "gen~"
				}

			}
 ],
		"lines" : [ 			{
				"patchline" : 				{
					"destination" : [ "obj-24", 2 ],
					"midpoints" : [ 225.5, 387.5, 277.5, 387.5 ],
					"source" : [ "obj-1", 3 ]
				}

			}
, 			{
				"patchline" : 				{
					"destination" : [ "obj-24", 1 ],
					"source" : [ "obj-1", 2 ]
				}

			}
, 			{
				"patchline" : 				{
					"destination" : [ "obj-24", 0 ],
					"source" : [ "obj-1", 0 ]
				}

			}
, 			{
				"patchline" : 				{
					"destination" : [ "obj-28", 1 ],
					"source" : [ "obj-1", 1 ]
				}

			}
, 			{
				"patchline" : 				{
					"destination" : [ "obj-26", 0 ],
					"source" : [ "obj-10", 0 ]
				}

			}
, 			{
				"patchline" : 				{
					"destination" : [ "obj-1", 0 ],
					"midpoints" : [ 1689.5, 317.0, 69.5, 317.0 ],
					"source" : [ "obj-11", 0 ]
				}

			}
, 			{
				"patchline" : 				{
					"destination" : [ "obj-42", 0 ],
					"source" : [ "obj-12", 0 ]
				}

			}
, 			{
				"patchline" : 				{
					"destination" : [ "obj-1", 0 ],
					"midpoints" : [ 429.5, 317.0, 69.5, 317.0 ],
					"source" : [ "obj-13", 0 ]
				}

			}
, 			{
				"patchline" : 				{
					"destination" : [ "obj-41", 0 ],
					"source" : [ "obj-14", 0 ]
				}

			}
, 			{
				"patchline" : 				{
					"destination" : [ "obj-1", 0 ],
					"midpoints" : [ 309.5, 317.0, 69.5, 317.0 ],
					"source" : [ "obj-15", 0 ]
				}

			}
, 			{
				"patchline" : 				{
					"destination" : [ "obj-32", 0 ],
					"source" : [ "obj-16", 0 ]
				}

			}
, 			{
				"patchline" : 				{
					"destination" : [ "obj-23", 0 ],
					"source" : [ "obj-17", 0 ]
				}

			}
, 			{
				"patchline" : 				{
					"destination" : [ "obj-2", 0 ],
					"source" : [ "obj-18", 0 ]
				}

			}
, 			{
				"patchline" : 				{
					"destination" : [ "obj-25", 0 ],
					"source" : [ "obj-19", 0 ]
				}

			}
, 			{
				"patchline" : 				{
					"destination" : [ "obj-22", 0 ],
					"source" : [ "obj-21", 0 ]
				}

			}
, 			{
				"patchline" : 				{
					"destination" : [ "obj-1", 1 ],
					"source" : [ "obj-22", 0 ]
				}

			}
, 			{
				"patchline" : 				{
					"destination" : [ "obj-1", 0 ],
					"midpoints" : [ 1224.5, 317.0, 69.5, 317.0 ],
					"source" : [ "obj-23", 0 ]
				}

			}
, 			{
				"patchline" : 				{
					"destination" : [ "obj-28", 0 ],
					"source" : [ "obj-24", 0 ]
				}

			}
, 			{
				"patchline" : 				{
					"destination" : [ "obj-1", 0 ],
					"midpoints" : [ 669.5, 317.0, 69.5, 317.0 ],
					"source" : [ "obj-25", 0 ]
				}

			}
, 			{
				"patchline" : 				{
					"destination" : [ "obj-7", 0 ],
					"source" : [ "obj-26", 0 ]
				}

			}
, 			{
				"patchline" : 				{
					"destination" : [ "obj-18", 0 ],
					"source" : [ "obj-28", 0 ]
				}

			}
, 			{
				"patchline" : 				{
					"destination" : [ "obj-1", 0 ],
					"source" : [ "obj-29", 0 ]
				}

			}
, 			{
				"patchline" : 				{
					"destination" : [ "obj-36", 0 ],
					"midpoints" : [ 225.5, 184.5, 132.5, 184.5 ],
					"order" : 1,
					"source" : [ "obj-29", 1 ]
				}

			}
, 			{
				"patchline" : 				{
					"destination" : [ "obj-39", 0 ],
					"order" : 0,
					"source" : [ "obj-29", 1 ]
				}

			}
, 			{
				"patchline" : 				{
					"destination" : [ "obj-5", 0 ],
					"source" : [ "obj-3", 0 ]
				}

			}
, 			{
				"patchline" : 				{
					"destination" : [ "obj-29", 1 ],
					"source" : [ "obj-32", 1 ]
				}

			}
, 			{
				"patchline" : 				{
					"destination" : [ "obj-29", 0 ],
					"source" : [ "obj-32", 0 ]
				}

			}
, 			{
				"patchline" : 				{
					"destination" : [ "obj-21", 0 ],
					"source" : [ "obj-36", 1 ]
				}

			}
, 			{
				"patchline" : 				{
					"destination" : [ "obj-1", 2 ],
					"source" : [ "obj-37", 0 ]
				}

			}
, 			{
				"patchline" : 				{
					"destination" : [ "obj-37", 0 ],
					"source" : [ "obj-39", 0 ]
				}

			}
, 			{
				"patchline" : 				{
					"destination" : [ "obj-17", 0 ],
					"source" : [ "obj-4", 0 ]
				}

			}
, 			{
				"patchline" : 				{
					"destination" : [ "obj-13", 0 ],
					"source" : [ "obj-41", 0 ]
				}

			}
, 			{
				"patchline" : 				{
					"destination" : [ "obj-43", 0 ],
					"source" : [ "obj-42", 0 ]
				}

			}
, 			{
				"patchline" : 				{
					"destination" : [ "obj-1", 0 ],
					"midpoints" : [ 1464.5, 317.0, 69.5, 317.0 ],
					"source" : [ "obj-43", 0 ]
				}

			}
, 			{
				"patchline" : 				{
					"destination" : [ "obj-1", 0 ],
					"midpoints" : [ 1134.5, 317.0, 69.5, 317.0 ],
					"source" : [ "obj-5", 0 ]
				}

			}
, 			{
				"patchline" : 				{
					"destination" : [ "obj-19", 0 ],
					"source" : [ "obj-6", 0 ]
				}

			}
, 			{
				"patchline" : 				{
					"destination" : [ "obj-1", 0 ],
					"midpoints" : [ 909.5, 317.0, 69.5, 317.0 ],
					"source" : [ "obj-7", 0 ]
				}

			}
, 			{
				"patchline" : 				{
					"destination" : [ "obj-15", 0 ],
					"source" : [ "obj-8", 0 ]
				}

			}
, 			{
				"patchline" : 				{
					"destination" : [ "obj-11", 0 ],
					"source" : [ "obj-9", 0 ]
				}

			}
 ],
		"saved_attribute_attributes" : 		{
			"default_plcolor" : 			{
				"expression" : ""
			}

		}

	}

}
